<?xml version="1.0" encoding="UTF-8"?>
<svg width="700pt" height="700pt" version="1.1" viewBox="0 0 700 700" xmlns="http://www.w3.org/2000/svg">
 <g>
  <path d="m135.33 186.67v130.67c0 20.609 16.727 37.332 37.332 37.332v168c0 10.324 8.3438 18.668 18.668 18.668h93.332c10.324 0 18.668-8.3438 18.668-18.668v-168c20.609 0 37.332-16.727 37.332-37.332v-130.67c0-20.609-16.727-37.332-37.332-37.332h-19.691c12.113-11.852 19.691-28.375 19.691-46.668 0-36.102-29.23-65.332-65.332-65.332s-65.332 29.23-65.332 65.332c0 18.293 7.5586 34.812 19.691 46.668l-19.691-0.003907c-20.609 0-37.336 16.727-37.336 37.336zm56-84c0-25.742 20.926-46.668 46.668-46.668s46.668 20.926 46.668 46.668c0 25.742-20.926 46.668-46.668 46.668-25.742-0.003907-46.668-20.93-46.668-46.668zm112 65.332c10.305 0 18.668 8.3633 18.668 18.668v130.67c0 10.305-8.3633 18.668-18.668 18.668v-112h-18.668v298.67h-37.332v-186.67h-18.668v186.67h-37.332v-298.67h-18.668v112c-10.305 0-18.668-8.3633-18.668-18.668v-130.67c0-10.305 8.3633-18.668 18.668-18.668z"/>
  <path d="m359.33 186.67v130.67c0 20.609 16.727 37.332 37.332 37.332v168c0 10.324 8.3438 18.668 18.668 18.668h93.332c10.324 0 18.668-8.3438 18.668-18.668v-168c20.609 0 37.332-16.727 37.332-37.332v-130.67c0-20.609-16.727-37.332-37.332-37.332h-19.691c12.113-11.852 19.691-28.375 19.691-46.668 0-36.102-29.23-65.332-65.332-65.332s-65.332 29.23-65.332 65.332c0 18.293 7.5586 34.812 19.691 46.668l-19.691-0.003907c-20.609 0-37.336 16.727-37.336 37.336zm56-84c0-25.742 20.926-46.668 46.668-46.668s46.668 20.926 46.668 46.668c0 25.742-20.926 46.668-46.668 46.668-25.742-0.003907-46.668-20.93-46.668-46.668zm112 65.332c10.305 0 18.668 8.3633 18.668 18.668v130.67c0 10.305-8.3633 18.668-18.668 18.668v-112h-18.668v298.67h-37.332v-186.67h-18.668v186.67h-37.332v-298.67h-18.668v112c-10.305 0-18.668-8.3633-18.668-18.668v-130.67c0-10.305 8.3633-18.668 18.668-18.668z"/>
 </g>
</svg>
